<svg width="22" height="22" viewBox="0 0 22 22" fill="none" xmlns="http://www.w3.org/2000/svg">
<g clip-path="url(#clip0_6467_5825)">
<path d="M20.1654 10.1567V11C20.1642 12.9768 19.5242 14.9002 18.3406 16.4834C17.157 18.0666 15.4934 19.2248 13.5978 19.7853C11.7022 20.3457 9.67619 20.2784 7.82196 19.5934C5.96774 18.9084 4.38463 17.6423 3.30874 15.984C2.23286 14.3257 1.72184 12.3641 1.8519 10.3917C1.98196 8.41922 2.74614 6.54167 4.03045 5.03902C5.31477 3.53637 7.05042 2.48914 8.97854 2.05351C10.9067 1.61787 12.9239 1.81718 14.7295 2.62171" stroke="#3C4494" stroke-width="2" stroke-linecap="round" stroke-linejoin="round"/>
<path d="M20.1667 3.66699L11 12.8428L8.25 10.0928" stroke="#3C4494" stroke-width="2" stroke-linecap="round" stroke-linejoin="round"/>
</g>
<defs>
<clipPath id="clip0_6467_5825">
<rect width="22" height="22" fill="white"/>
</clipPath>
</defs>
</svg>
