<svg width="23" height="23" viewBox="0 0 23 23" fill="none" xmlns="http://www.w3.org/2000/svg">
<path d="M4 3H19C19.5304 3 20.0391 3.21071 20.4142 3.58579C20.7893 3.96086 21 4.46957 21 5V18C21 18.5304 20.7893 19.0391 20.4142 19.4142C20.0391 19.7893 19.5304 20 19 20H4C3.46957 20 2.96086 19.7893 2.58579 19.4142C2.21071 19.0391 2 18.5304 2 18V5C2 4.46957 2.21071 3.96086 2.58579 3.58579C2.96086 3.21071 3.46957 3 4 3Z" stroke="#3C4494" stroke-width="1.5" stroke-linecap="round" stroke-linejoin="round"/>
<path d="M6 7H11V12H6V7Z" stroke="#3C4494" stroke-width="1.5" stroke-linecap="round" stroke-linejoin="round"/>
<path d="M14 7H17" stroke="#3C4494" stroke-width="1.5" stroke-linecap="round"/>
<path d="M14 10H17" stroke="#3C4494" stroke-width="1.5" stroke-linecap="round"/>
<path d="M6 15H17" stroke="#3C4494" stroke-width="1.5" stroke-linecap="round"/>
<path d="M6 18H13" stroke="#3C4494" stroke-width="1.5" stroke-linecap="round"/>
</svg>
