<svg width="23" height="23" viewBox="0 0 23 23" fill="none" xmlns="http://www.w3.org/2000/svg">
<path d="M6.5 4L4 7V17.5C4 17.8978 4.17559 18.2794 4.48816 18.5607C4.80072 18.842 5.22464 19 5.66667 19H17.3333C17.7754 19 18.1993 18.842 18.5118 18.5607C18.8244 18.2794 19 17.8978 19 17.5V7L16.5 4H6.5Z" stroke="#3C4494" stroke-width="1.5" stroke-linecap="round" stroke-linejoin="round"/>
<path d="M4 7H19" stroke="#3C4494" stroke-width="1.5" stroke-linecap="round" stroke-linejoin="round"/>
<path d="M15 10C15 10.7956 14.6313 11.5587 13.9749 12.1213C13.3185 12.6839 12.4283 13 11.5 13C10.5717 13 9.6815 12.6839 9.02513 12.1213C8.36875 11.5587 8 10.7956 8 10" stroke="#3C4494" stroke-width="1.5" stroke-linecap="round" stroke-linejoin="round"/>
</svg>
