<svg width="23" height="23" viewBox="0 0 23 23" fill="none" xmlns="http://www.w3.org/2000/svg">
<path d="M11.5 2C10.1193 2 9 3.11929 9 4.5V11.5C9 12.8807 10.1193 14 11.5 14C12.8807 14 14 12.8807 14 11.5V4.5C14 3.11929 12.8807 2 11.5 2Z" stroke="#3C4494" stroke-width="1.5" stroke-linecap="round" stroke-linejoin="round"/>
<path d="M17.5 10V11.5C17.5 13.0913 16.8679 14.6174 15.7426 15.7426C14.6174 16.8679 13.0913 17.5 11.5 17.5C9.9087 17.5 8.38258 16.8679 7.25736 15.7426C6.13214 14.6174 5.5 13.0913 5.5 11.5V10" stroke="#3C4494" stroke-width="1.5" stroke-linecap="round" stroke-linejoin="round"/>
<path d="M11.5 17.5V21" stroke="#3C4494" stroke-width="1.5" stroke-linecap="round" stroke-linejoin="round"/>
<path d="M8 21H15" stroke="#3C4494" stroke-width="1.5" stroke-linecap="round" stroke-linejoin="round"/>
</svg>
