<svg width="44" height="44" viewBox="0 0 44 44" fill="none" xmlns="http://www.w3.org/2000/svg">
<path d="M18.8634 7.07655L3.33512 32.9999C3.01496 33.5543 2.84556 34.1829 2.84376 34.8232C2.84197 35.4634 3.00785 36.0929 3.3249 36.6492C3.64195 37.2054 4.09911 37.6689 4.65092 37.9936C5.20272 38.3183 5.82992 38.4928 6.47012 38.4999H37.5268C38.167 38.4928 38.7942 38.3183 39.346 37.9936C39.8978 37.6689 40.3549 37.2054 40.672 36.6492C40.989 36.0929 41.1549 35.4634 41.1531 34.8232C41.1513 34.1829 40.9819 33.5543 40.6618 32.9999L25.1334 7.07655C24.8066 6.53775 24.3464 6.09227 23.7973 5.78311C23.2482 5.47394 22.6286 5.31152 21.9984 5.31152C21.3683 5.31152 20.7487 5.47394 20.1996 5.78311C19.6505 6.09227 19.1903 6.53775 18.8634 7.07655Z" fill="#CA0000"/>
<path d="M22 16.5V23.8333" stroke="white" stroke-width="2" stroke-linecap="round" stroke-linejoin="round"/>
<path d="M22 31.167H22.0116" stroke="white" stroke-width="2" stroke-linecap="round" stroke-linejoin="round"/>
</svg>
