<svg width="23" height="23" viewBox="0 0 23 23" fill="none" xmlns="http://www.w3.org/2000/svg">
<path d="M21 16.92V19.92C21 20.4835 20.7766 21.0241 20.3765 21.4242C19.9765 21.8242 19.4361 22.048 18.873 22.048C18.873 22.048 18.873 22.048 18.87 22.05C15.63 21.6878 12.5309 20.5696 9.79 18.78C7.24 17.1425 5.07 14.9725 3.43 12.42C1.63 9.66 0.51 6.54 0.16 3.28C0.1 2.72 0.32 2.17 0.72 1.77C1.11 1.38 1.64 1.16 2.2 1.16H5.2C6.21 1.16 7.06 1.88 7.2 2.88C7.33 3.82 7.58 4.74 7.93 5.62C8.22 6.34 8.04 7.16 7.47 7.69L6.19 8.97C7.68 11.57 9.78 13.67 12.38 15.16L13.66 13.88C14.19 13.31 15.01 13.13 15.73 13.42C16.61 13.77 17.53 14.02 18.47 14.15C19.48 14.29 20.2 15.15 20.2 16.17" stroke="#3C4494" stroke-width="1.5" stroke-linecap="round" stroke-linejoin="round"/>
</svg>
