<svg width="23" height="23" viewBox="0 0 23 23" fill="none" xmlns="http://www.w3.org/2000/svg">
<path d="M16 21V19C16 17.9391 15.5786 16.9217 14.8284 16.1716C14.0783 15.4214 13.0609 15 12 15H5C3.93913 15 2.92172 15.4214 2.17157 16.1716C1.42143 16.9217 1 17.9391 1 19V21" stroke="#3C4494" stroke-width="1.5" stroke-linecap="round" stroke-linejoin="round"/>
<circle cx="8.5" cy="7" r="4" stroke="#3C4494" stroke-width="1.5" stroke-linecap="round" stroke-linejoin="round"/>
<path d="M22 21V19C21.9993 18.1137 21.7044 17.2528 21.1614 16.5523C20.6184 15.8519 19.8581 15.3516 19 15.13" stroke="#3C4494" stroke-width="1.5" stroke-linecap="round" stroke-linejoin="round"/>
<path d="M16 3.13C16.8604 3.35031 17.623 3.85071 18.1676 4.55232C18.7122 5.25392 19.0078 6.11683 19.0078 7.005C19.0078 7.89318 18.7122 8.75608 18.1676 9.45769C17.623 10.1593 16.8604 10.6597 16 10.88" stroke="#3C4494" stroke-width="1.5" stroke-linecap="round" stroke-linejoin="round"/>
</svg>
